/* XPM */
static char *kapow7[] = {
/* columns rows colors chars-per-pixel */
"32 32 98 2 ",
"   c #0CE234B40CE2",
".  c #0B3E39A00B3E",
"X  c #040445450404",
"o  c #050549CA0505",
"O  c #0C8D45450C8D",
"+  c #048551D20485",
"@  c #032E59AF032E",
"#  c #0B0B55550B0B",
"$  c #0B0B5E5E0B0B",
"%  c #191944441919",
"&  c #016863300168",
"*  c #019B6B51019B",
"=  c #0A0A65650A0A",
"-  c #09776C470977",
";  c #008472EF0084",
":  c #00567B140056",
">  c #0C0C72720C0C",
",  c #095F7B7B095F",
"<  c #101061611010",
"1  c #212159592121",
"2  c #34345F5F3434",
"3  c #393977773939",
"4  c #434367674343",
"5  c #474770704747",
"6  c #555578785555",
"7  c #013E8321013E",
"8  c #016B8D51016B",
"9  c #0B0B86860B0B",
"0  c #0C738EF50C73",
"q  c #018B94BC018B",
"w  c #01B69C1401B6",
"e  c #0C8D91910C8D",
"r  c #0A2A9B3B0A2A",
"t  c #199A8505199A",
"y  c #19598CCC1959",
"u  c #199A9515199A",
"i  c #0168A3CA0168",
"p  c #019FAD0F019F",
"a  c #0808A3A30808",
"s  c #00ABB42500AB",
"d  c #00ECBAF800EC",
"f  c #25258E0E2525",
"g  c #257B93E9257B",
"h  c #34348C4C3434",
"j  c #383885853838",
"k  c #39398CCC3939",
"l  c #343492123434",
"z  c #3A3A94943A3A",
"x  c #0095C3D10095",
"c  c #0048CC130048",
"v  c #005CD41C005C",
"b  c #0000DBBB0000",
"n  c #0D0DD2D20D0D",
"m  c #1394DCDC1394",
"M  c #2E2EC0C02E2E",
"N  c #2323DCDC2323",
"B  c #2929DADA2929",
"V  c #3535DADA3535",
"C  c #5454B7B75454",
"Z  c #6A6A85856A6A",
"A  c #757597977575",
"S  c #747499BE7474",
"D  c #7F7F9B9B7F7F",
"F  c #6363A9A96363",
"G  c #4848DCDC4848",
"H  c #6363CDCD6363",
"J  c #7373CDCD7373",
"K  c #7777DBDB7777",
"L  c #80809E9E8080",
"P  c #8B8B9D1D8B8B",
"I  c #913B9F49913B",
"U  c #8F0FB7378F0F",
"Y  c #92E8A1F792E8",
"T  c #9E9EA6A69E9E",
"R  c #9514B1319514",
"E  c #A666ABEBA666",
"W  c #A8A8AE58A8A8",
"Q  c #A0A0B4B4A0A0",
"!  c #AEAEB15BAEAE",
"~  c #B5B5B737B5B5",
"^  c #B636BB3BB636",
"/  c #BB6EBD70BB6E",
"(  c #9D9DD9D99D9D",
")  c #B6B6C3C3B6B6",
"_  c #BFBFC0C0BFBF",
"`  c #BDBDCBCBBDBD",
"'  c #BABAEAEABABA",
"]  c #C36DC36DC36D",
"[  c #D38AD41CD38A",
"{  c #DA84DA84DA84",
"}  c #DFDFE0E0DFDF",
"|  c #E5A8E5C0E5A8",
" . c #E3E3EAEAE3E3",
".. c #ED3BED7DED3B",
"X. c #E5E5F6F6E5E5",
"o. c #F3E3F3E3F3E3",
"O. c #FE47FE4AFE47",
"+. c None",
/* pixels */
"+.+.+.+.+.+.+.+.+.+.+.+.+.+.+.+.+.+.+.+.+.+.+.+.+.+.+.+.+.+.+.+.",
"+.+.+.+.+.+.+.+.+.+.+.+.+.+.r a a a +.+.+.+.+.+.+.+.+.+.+.+.+.+.",
"+.+.+.+.+.+.+.+.+.+.r d c c v v v v c x d e +.+.+.+.+.+.+.+.+.+.",
"+.+.+.+.+.+.+.+.y d c v v v b b b b b v v c d 9 +.+.+.+.+.+.+.+.",
"+.+.+.+.+.+.+.a d c v v v v v v v v v v b v c d a +.+.+.+.+.+.+.",
"+.+.+.+.+.+.p x c v c c p e t j j t e p c c v c x p +.+.+.+.+.+.",
"+.+.+.+.+.i x c c c p k I ! / / / / Q Y h p c c c c a +.+.+.+.+.",
"+.+.+.+.q d c c x r A ] { | | U U | G B J A r d c c d r +.+.+.+.",
"+.+.+., p d c d f W { | ....o.......n v v V R f d d c p - +.+.+.",
"+.+.+.r d d d r W { ......o.o.O.O.' c c v b m R r d d d r +.+.+.",
"+.+., s d d a A { | ..o.O.O.O.O.O.K d x c c v B S i d d p , +.+.",
"+.+.q s d d h ] | ..o.O.O.O.O.O.O.M d d x c v b H h p d d q +.+.",
"+.+.w p s r I { .... .) O.O.O.O.X.i p d d x c v m D r p d w +.+.",
"+.- i p p e ! | ..o.O.{ 6 ` O.O.( i i p d d w g F P e p p w +.+.",
"+.> i p p y / | o.o.O.O.| 2 5  .C w 8 * < 3 Q .. .^ y i s i - +.",
"+.- w p i h / U ..O.O.O.O.o.4 X X o 1 D ..O.o...U ^ k w p i - +.",
"+.- w i i k / U o.o.O.O.O. .Z % . P O.O.O.O.O...U ^ k w i i = +.",
"+.= q i w y / | ..O.O.O.O.O.O.O.{ Y O.O.O.O.o.o.| ^ y w i w $ +.",
"+.$ 8 w w e ! | ..o.O.O.O.O.O.O.O.O.O.O.O.O.o...| E 0 q w 8 # +.",
"+.+.7 q q 8 Y { ..o.O.O.O.O.O.O.O.O.O.O.O.o.o...{ P 8 q q 7 +.+.",
"+.+.; 8 q 8 l ] | ..o.o.O.O.O.O.O.O.O.O.o.o...| / h 8 q q ; +.+.",
"+.+.# 7 8 8 8 S [ ..o.o.o.O.O.O.O.O.O.O.o.....[ S 8 8 8 7 # +.+.",
"+.+.+.* 7 8 8 e W { | o.o.o.o.o.O.o.o.o.o.| { T e 7 8 8 * +.+.+.",
"+.+.+.O * 7 7 7 f T [ | | o.o.o...o.....| [ T f 7 7 7 ; O +.+.+.",
"+.+.+.+.+ : 7 : : e S ] { | | U U | | { / A 0 : 7 7 : + +.+.+.+.",
"+.+.+.+.+.@ : : : : 7 l P W ~ ^ ^ ~ E I l 7 : : : : @ +.+.+.+.+.",
"+.+.+.+.+.+.@ ; : : : ; : 0 u z z u 0 7 : : : : ; @ +.+.+.+.+.+.",
"+.+.+.+.+.+.+.o @ ; ; : : * ; ; ; * * ; ; ; ; & o +.+.+.+.+.+.+.",
"+.+.+.+.+.+.+.+.  + * ; ; ; ; ; : ; * ; ; * + . +.+.+.+.+.+.+.+.",
"+.+.+.+.+.+.+.+.+.+.. o @ & & * * & & @ o . +.+.+.+.+.+.+.+.+.+.",
"+.+.+.+.+.+.+.+.+.+.+.+.+.    . .     +.+.+.+.+.+.+.+.+.+.+.+.+.",
"+.+.+.+.+.+.+.+.+.+.+.+.+.+.+.+.+.+.+.+.+.+.+.+.+.+.+.+.+.+.+.+."
};
