/* XPM */
static char *kapow[] = {
/* columns rows colors chars-per-pixel */
"32 32 96 2 ",
"   c #0C350C",
".  c #0B390B",
"X  c #044504",
"o  c #054A05",
"O  c #0D450D",
"+  c #055205",
"@  c #035903",
"#  c #0B560B",
"$  c #0B5E0B",
"%  c #194419",
"&  c #016301",
"*  c #026B02",
"=  c #0A650A",
"-  c #086C08",
";  c #017201",
":  c #007B00",
">  c #097B09",
",  c #106110",
"<  c #215921",
"1  c #345F34",
"2  c #397739",
"3  c #436743",
"4  c #477047",
"5  c #557855",
"6  c #018301",
"7  c #018D01",
"8  c #0D8F0D",
"9  c #029402",
"0  c #029B02",
"q  c #0D910D",
"w  c #0B9A0B",
"e  c #1A851A",
"r  c #198C19",
"t  c #1A951A",
"y  c #01A301",
"u  c #02AC02",
"i  c #08A308",
"p  c #01B301",
"a  c #01BA01",
"s  c #258E25",
"d  c #259325",
"f  c #348C34",
"g  c #388538",
"h  c #398C39",
"j  c #349234",
"k  c #3A943A",
"l  c #01C301",
"z  c #00CB00",
"x  c #00D300",
"c  c #00DB00",
"v  c #0DD20D",
"b  c #14DC14",
"n  c #2EC02E",
"m  c #23DC23",
"M  c #29DA29",
"N  c #35DA35",
"B  c #54B754",
"V  c #6A856A",
"C  c #759775",
"Z  c #749974",
"A  c #7F9B7F",
"S  c #63A963",
"D  c #48DC48",
"F  c #63CD63",
"G  c #73CD73",
"H  c #77DB77",
"J  c #809E80",
"K  c #8B9D8B",
"L  c #919F91",
"P  c #8FB78F",
"I  c #92A192",
"U  c #9EA69E",
"Y  c #94B194",
"T  c #A6ABA6",
"R  c #A8AEA8",
"E  c #A0B4A0",
"W  c #AEB1AE",
"Q  c #B5B7B5",
"!  c #B6BBB6",
"~  c #BBBDBB",
"^  c #9DD99D",
"/  c #B6C3B6",
"(  c #BFC0BF",
")  c #BDCBBD",
"_  c #BAEABA",
"`  c #C3C3C3",
"'  c #D3D3D3",
"]  c #DADADA",
"[  c #DFE0DF",
"{  c #E5E5E5",
"}  c #E3EAE3",
"|  c #ECEDEC",
" . c #E5F6E5",
".. c #F3F3F3",
"X. c #FDFDFD",
"o. c None",
/* pixels */
"o.o.o.o.o.o.o.o.o.o.o.o.o.o.o.o.o.o.o.o.o.o.o.o.o.o.o.o.o.o.o.o.",
"o.o.o.o.o.o.o.o.o.o.o.o.o.o.o.i i o.o.o.o.o.o.o.o.o.o.o.o.o.o.o.",
"o.o.o.o.o.o.o.o.o.o.w p z z x x x x z l a w o.o.o.o.o.o.o.o.o.o.",
"o.o.o.o.o.o.o.o.o.a v x x x c c c c c x x z a o.o.o.o.o.o.o.o.o.",
"o.o.o.o.o.o.o.i a z x c x x x x x x x x x x z a i o.o.o.o.o.o.o.",
"o.o.o.o.o.o.u l z x z z u q e g g e w i z x x z l u o.o.o.o.o.o.",
"o.o.o.o.o.y l z z z u h L W ~ ~ ~ ( E I g u z z z z i o.o.o.o.o.",
"o.o.o.o.9 a z z l w C ` ] { { P P { D m G C w a z z a w o.o.o.o.",
"o.o.o.> u a z a s R ] { | | ..| | | v x x N Y s a a l u o.o.o.o.",
"o.o.o.0 a a a w R ] | | | ....X.X._ z z x c b Y w a l a 0 o.o.o.",
"o.o.> p a a i C ] { | ..X.X.X.X.X.H a l z z x M Z y a a p > o.o.",
"o.o.q p a a f ` { | ..X.X.X.X.X.X.n a a l z x c F f u a a q o.o.",
"o.o.0 p p 0 L ] | | } / X.X.X.X. .y u a a l z x b J 0 u p 0 o.o.",
"o.o.0 u u 8 W { | ..X.] 5 ) X.X.^ y y u a a 0 d S I q u u 0 o.o.",
"o.- y u u r ~ { ....X.X.{ 1 4 } B 0 7 * , 2 E | { Q r y u y o.o.",
"o.- y u y h ~ P | X.X.X.X...3 X X o < A | X...| P ! h 0 u u - o.",
"o.- 0 y y h ~ P ....X.X.X.} V % . K X.X.X.X.X.| P ! h 0 y y = o.",
"o.= 9 y 0 t ~ { | X.X.X.X.X.X.X.] I X.X.X.X.....{ ! r 0 y 0 $ o.",
"o.o.7 0 0 8 W { | ..X.X.X.X.X.X.X.X.X.X.X.X...| { T 8 9 0 7 o.o.",
"o.o.6 9 9 7 I ] | ..X.X.X.X.X.X.X.X.X.X.X.....| ] K 7 9 9 6 o.o.",
"o.o.; 7 9 7 j ` { | ....X.X.X.X.X.X.X.X.....| { ~ j 7 9 9 * o.o.",
"o.o.# 6 7 7 7 C ' | ......X.X.X.X.X.X.X...| | ' Z 7 7 7 6 # o.o.",
"o.o.o.- 6 7 7 q R ] { ........X.X.........{ ] U q 6 7 7 * o.o.o.",
"o.o.o.O * 6 6 6 s U ' { | | ..| | ..| | { ' U s 6 6 6 ; O o.o.o.",
"o.o.o.o.+ : 6 : 6 q C ` ] } { P P { { ] ~ Z 8 6 6 6 : + o.o.o.o.",
"o.o.o.o.o.@ : : : ; 6 j K T Q ! ! Q T L j 6 : : : : @ o.o.o.o.o.",
"o.o.o.o.o.o.@ ; : : : ; > 8 t k k t 8 6 ; : : ; ; @ o.o.o.o.o.o.",
"o.o.o.o.o.o.o.o & ; ; ; ; ; * ; ; * ; ; ; ; ; & o o.o.o.o.o.o.o.",
"o.o.o.o.o.o.o.o.. + * ; * ; ; ; ; ; * ; ; * + . o.o.o.o.o.o.o.o.",
"o.o.o.o.o.o.o.o.o.o.. o @ & & * * * & @ o . o.o.o.o.o.o.o.o.o.o.",
"o.o.o.o.o.o.o.o.o.o.o.o.o.o.  . .   o.o.o.o.o.o.o.o.o.o.o.o.o.o.",
"o.o.o.o.o.o.o.o.o.o.o.o.o.o.o.o.o.o.o.o.o.o.o.o.o.o.o.o.o.o.o.o."
};
